<?xml version="1.0" standalone="no"?>
<!DOCTYPE svg PUBLIC "-//W3C//DTD SVG 20010904//EN"
 "http://www.w3.org/TR/2001/REC-SVG-20010904/DTD/svg10.dtd">
<svg version="1.0" xmlns="http://www.w3.org/2000/svg"
 width="118.000000pt" height="118.000000pt" viewBox="0 0 118.000000 118.000000"
 preserveAspectRatio="xMidYMid meet">
<metadata>
Created by potrace 1.14, written by Peter Selinger 2001-2017
</metadata>
<g transform="translate(0.000000,118.000000) scale(0.100000,-0.100000)"
fill="#000000" stroke="none">
<path d="M380 1170 c0 -6 -4 -8 -10 -5 -5 3 -10 1 -10 -4 0 -6 -9 -20 -20 -31
-11 -11 -18 -20 -15 -20 3 0 -1 -13 -9 -29 -9 -16 -12 -31 -9 -35 4 -3 0 -6
-7 -6 -7 0 -10 -3 -7 -7 4 -3 0 -17 -8 -30 -9 -13 -13 -23 -10 -23 3 0 -1 -13
-9 -29 -9 -16 -12 -31 -9 -35 4 -3 1 -6 -6 -6 -7 0 -11 -6 -8 -14 3 -8 1 -16
-4 -18 -5 -2 -11 -13 -12 -26 0 -12 -4 -22 -8 -22 -6 0 -23 -58 -20 -72 0 -5
-3 -8 -8 -8 -8 0 -21 -34 -26 -65 0 -5 -6 -23 -13 -38 -7 -16 -12 -34 -12 -41
0 -6 -4 -16 -9 -22 -5 -5 -18 -49 -28 -97 -16 -77 -16 -89 -3 -97 8 -5 12 -10
8 -10 -8 0 36 -82 64 -121 10 -13 43 -60 75 -103 64 -89 108 -138 117 -129 3
4 6 1 6 -6 0 -8 6 -11 16 -7 8 3 12 2 9 -4 -4 -6 55 -10 164 -10 104 0 171 4
171 10 0 5 7 7 15 4 8 -3 20 -2 27 2 13 9 33 14 56 16 6 1 12 5 12 10 0 5 4 6
10 3 5 -3 18 -1 28 4 11 6 32 13 49 15 34 6 92 34 111 53 7 7 11 13 7 13 -4 0
1 7 9 16 9 8 17 25 17 37 1 12 3 36 6 52 2 17 6 82 9 146 5 96 3 123 -10 148
-9 17 -14 31 -11 31 17 0 -368 391 -484 490 -35 30 -69 60 -75 65 -45 42 -126
77 -126 55z"/>
</g>
</svg>
